<svg id="wave" style="transform:rotate(180deg); transition: 0.3s" viewBox="0 0 1440 490" version="1.1" xmlns="http://www.w3.org/2000/svg"><defs><linearGradient id="sw-gradient-0" x1="0" x2="0" y1="1" y2="0"><stop stop-color="rgba(97, 79, 224, 1)" offset="0%"></stop><stop stop-color="rgba(211, 206, 246, 1)" offset="100%"></stop></linearGradient></defs><path style="transform:translate(0, 0px); opacity:1" fill="url(#sw-gradient-0)" d="M0,343L60,351.2C120,359,240,376,360,392C480,408,600,425,720,359.3C840,294,960,147,1080,73.5C1200,0,1320,0,1440,57.2C1560,114,1680,229,1800,245C1920,261,2040,180,2160,187.8C2280,196,2400,294,2520,294C2640,294,2760,196,2880,171.5C3000,147,3120,196,3240,196C3360,196,3480,147,3600,130.7C3720,114,3840,131,3960,122.5C4080,114,4200,82,4320,130.7C4440,180,4560,310,4680,310.3C4800,310,4920,180,5040,114.3C5160,49,5280,49,5400,106.2C5520,163,5640,278,5760,294C5880,310,6000,229,6120,220.5C6240,212,6360,278,6480,294C6600,310,6720,278,6840,220.5C6960,163,7080,82,7200,40.8C7320,0,7440,0,7560,16.3C7680,33,7800,65,7920,73.5C8040,82,8160,65,8280,106.2C8400,147,8520,245,8580,294L8640,343L8640,490L8580,490C8520,490,8400,490,8280,490C8160,490,8040,490,7920,490C7800,490,7680,490,7560,490C7440,490,7320,490,7200,490C7080,490,6960,490,6840,490C6720,490,6600,490,6480,490C6360,490,6240,490,6120,490C6000,490,5880,490,5760,490C5640,490,5520,490,5400,490C5280,490,5160,490,5040,490C4920,490,4800,490,4680,490C4560,490,4440,490,4320,490C4200,490,4080,490,3960,490C3840,490,3720,490,3600,490C3480,490,3360,490,3240,490C3120,490,3000,490,2880,490C2760,490,2640,490,2520,490C2400,490,2280,490,2160,490C2040,490,1920,490,1800,490C1680,490,1560,490,1440,490C1320,490,1200,490,1080,490C960,490,840,490,720,490C600,490,480,490,360,490C240,490,120,490,60,490L0,490Z"></path><defs><linearGradient id="sw-gradient-1" x1="0" x2="0" y1="1" y2="0"><stop stop-color="rgba(97, 79, 224, 1)" offset="0%"></stop><stop stop-color="rgba(211, 206, 246, 1)" offset="100%"></stop></linearGradient></defs><path style="transform:translate(0, 50px); opacity:0.9" fill="url(#sw-gradient-1)" d="M0,0L60,65.3C120,131,240,261,360,310.3C480,359,600,327,720,318.5C840,310,960,327,1080,318.5C1200,310,1320,278,1440,220.5C1560,163,1680,82,1800,106.2C1920,131,2040,261,2160,318.5C2280,376,2400,359,2520,334.8C2640,310,2760,278,2880,253.2C3000,229,3120,212,3240,236.8C3360,261,3480,327,3600,318.5C3720,310,3840,229,3960,187.8C4080,147,4200,147,4320,187.8C4440,229,4560,310,4680,343C4800,376,4920,359,5040,294C5160,229,5280,114,5400,122.5C5520,131,5640,261,5760,318.5C5880,376,6000,359,6120,351.2C6240,343,6360,343,6480,334.8C6600,327,6720,310,6840,277.7C6960,245,7080,196,7200,163.3C7320,131,7440,114,7560,138.8C7680,163,7800,229,7920,285.8C8040,343,8160,392,8280,416.5C8400,441,8520,441,8580,441L8640,441L8640,490L8580,490C8520,490,8400,490,8280,490C8160,490,8040,490,7920,490C7800,490,7680,490,7560,490C7440,490,7320,490,7200,490C7080,490,6960,490,6840,490C6720,490,6600,490,6480,490C6360,490,6240,490,6120,490C6000,490,5880,490,5760,490C5640,490,5520,490,5400,490C5280,490,5160,490,5040,490C4920,490,4800,490,4680,490C4560,490,4440,490,4320,490C4200,490,4080,490,3960,490C3840,490,3720,490,3600,490C3480,490,3360,490,3240,490C3120,490,3000,490,2880,490C2760,490,2640,490,2520,490C2400,490,2280,490,2160,490C2040,490,1920,490,1800,490C1680,490,1560,490,1440,490C1320,490,1200,490,1080,490C960,490,840,490,720,490C600,490,480,490,360,490C240,490,120,490,60,490L0,490Z"></path></svg>