<svg xmlns="http://www.w3.org/2000/svg" viewBox="0 0 1024 1024" id="Cash"><path d="M920 271v424.9c0 18.9.2 37.8 0 56.7 0 2-.1 4-.4 6 .4-2.7.7-5.3 1.1-8-.5 3.1-1.3 6-2.4 9l3-7.2c-.9 2.2-2.1 4.3-3.3 6.4-2.8 4.8 1.8-2.7 2-2.4.1.1-2.5 2.7-2.6 2.9-.8.8-1.6 1.4-2.4 2.2-2.4 2.4 6.4-4.3 2.5-2-2.3 1.3-4.5 2.6-6.9 3.6l7.2-3c-2.9 1.1-5.9 1.9-9 2.4 2.7-.4 5.3-.7 8-1.1-8.5 1-17.3.4-25.8.4H113.9c-2.2 0-4.3-.1-6.5-.4 2.7.4 5.3.7 8 1.1-3.1-.5-6-1.3-9-2.4l7.2 3c-2.2-.9-4.3-2.1-6.4-3.3-4.8-2.8 2.7 1.8 2.4 2-.1.1-2.7-2.5-2.9-2.6-.8-.8-1.4-1.6-2.2-2.4-2.4-2.4 4.3 6.4 2 2.5-1.3-2.3-2.6-4.5-3.6-6.9l3 7.2c-1.1-2.9-1.9-5.9-2.4-9 .4 2.7.7 5.3 1.1 8-.7-5.7-.4-11.6-.4-17.3V328.9c0-19.1-.2-38.2 0-57.3 0-2 .1-4 .4-6-.4 2.7-.7 5.3-1.1 8 .5-3.1 1.3-6 2.4-9l-3 7.2c.9-2.2 2.1-4.3 3.3-6.4 2.8-4.8-1.8 2.7-2 2.4-.1-.1 2.5-2.7 2.6-2.9.8-.8 1.6-1.4 2.4-2.2 2.4-2.4-6.4 4.3-2.5 2 2.3-1.3 4.5-2.6 6.9-3.6l-7.2 3c2.9-1.1 5.9-1.9 9-2.4-2.7.4-5.3.7-8 1.1 8.5-1 17.3-.4 25.8-.4H910.3c2.2 0 4.3.1 6.5.4-2.7-.4-5.3-.7-8-1.1 3.1.5 6 1.3 9 2.4l-7.2-3c2.2.9 4.3 2.1 6.4 3.3 4.8 2.8-2.7-1.8-2.4-2 .1-.1 2.7 2.5 2.9 2.6.8.8 1.4 1.6 2.2 2.4 2.4 2.4-4.3-6.4-2-2.5 1.3 2.3 2.6 4.5 3.6 6.9l-3-7.2c1.1 2.9 1.9 5.9 2.4 9-.4-2.7-.7-5.3-1.1-8 .2 1.7.3 3.5.4 5.4.3 15.7 13.6 30.7 30 30 16-.7 30.3-13.2 30-30-.3-17.9-7-34.6-19.2-47.7-12.2-13-29.2-19.7-46.7-21-2.1-.1-4.2-.1-6.4-.1H113.1c-24.6.3-48.8 13.4-60.5 35.6-8.8 16.6-8.5 32.9-8.5 50.7v458.6c0 2.9-.1 5.7.1 8.6 1.2 17.5 7.9 34.5 21 46.7 12.7 11.9 28.9 18.6 46.3 19.2 5.5.2 11 0 16.5 0H892c6.3 0 12.7.1 19.1 0 25.3-.3 50.7-14.4 61.6-37.9 5.1-10.9 7.4-22.1 7.4-34.1V270.8c0-15.7-13.8-30.7-30-30-16.4.9-30.1 13.4-30.1 30.2z" fill="#000000" class="color000000 svgShape"></path><path d="M649.2 512c0 7.4-.5 14.9-1.5 22.2.4-2.7.7-5.3 1.1-8-2 14.8-5.9 29.1-11.7 42.9l3-7.2c-4.2 9.7-9.2 19.1-15.1 27.9-1.5 2.2-3 4.3-4.5 6.4-1.4 1.8-4.8 5.5 1.5-1.9-.8 1-1.6 2.1-2.5 3.1-3.3 4-6.9 7.9-10.6 11.6s-7.6 7.2-11.6 10.6c-.7.6-2.3 2.4-3.1 2.5 1.2-.1 6.6-5 1.9-1.5-2.1 1.6-4.3 3.1-6.4 4.5-8.7 5.9-18 10.9-27.7 15.1l7.2-3c-13.7 5.7-28.1 9.7-42.9 11.7 2.7-.4 5.3-.7 8-1.1-14.8 1.9-29.7 1.9-44.5 0 2.7.4 5.3.7 8 1.1-14.8-2-29.1-5.9-42.9-11.7l7.2 3c-9.7-4.2-19.1-9.2-27.9-15.1-2.2-1.5-4.3-3-6.4-4.5-1.8-1.4-5.5-4.8 1.9 1.5-1-.8-2.1-1.6-3.1-2.5-4-3.3-7.9-6.9-11.6-10.6s-7.2-7.6-10.6-11.6c-.6-.7-2.4-2.3-2.5-3.1.1 1.2 5 6.6 1.5 1.9-1.6-2.1-3.1-4.3-4.5-6.4-5.9-8.8-10.9-18.1-15.1-27.8l3 7.2c-5.7-13.7-9.7-28.1-11.7-42.9.4 2.7.7 5.3 1.1 8-1.9-14.8-1.9-29.7 0-44.5-.4 2.7-.7 5.3-1.1 8 2-14.8 5.9-29.1 11.7-42.9l-3 7.2c4.2-9.7 9.2-19.1 15.1-27.9 1.5-2.2 3-4.3 4.5-6.4 1.4-1.8 4.8-5.5-1.5 1.9.8-1 1.6-2.1 2.5-3.1 3.3-4 6.9-7.9 10.6-11.6s7.6-7.2 11.6-10.6c.7-.6 2.3-2.4 3.1-2.5-1.2.1-6.6 5-1.9 1.5 2.1-1.6 4.3-3.1 6.4-4.5 8.8-5.9 18.1-10.9 27.9-15.1l-7.2 3c13.7-5.7 28.1-9.7 42.9-11.7-2.7.4-5.3.7-8 1.1 14.8-1.9 29.7-1.9 44.5 0-2.7-.4-5.3-.7-8-1.1 14.8 2 29.1 5.9 42.9 11.7l-7.2-3c9.7 4.2 19.1 9.2 27.9 15.1 2.2 1.5 4.3 3 6.4 4.5 1.8 1.4 5.5 4.8-1.9-1.5 1 .8 2.1 1.6 3.1 2.5 4 3.3 7.9 6.9 11.6 10.6s7.2 7.6 10.6 11.6c.6.7 2.4 2.3 2.5 3.1-.1-1.2-5-6.6-1.5-1.9 1.6 2.1 3.1 4.3 4.5 6.4 5.9 8.8 10.9 18.1 15.1 27.9l-3-7.2c5.7 13.7 9.7 28.1 11.7 42.9-.4-2.7-.7-5.3-1.1-8 .8 7.3 1.3 14.8 1.3 22.2.1 15.7 13.8 30.7 30 30 16.2-.7 30.1-13.2 30-30-.2-39.7-12.1-80-35.3-112.4-24.3-34-57.1-59.1-96.3-73.5-75.1-27.6-165.3-3.2-216.1 58.6-27 32.8-42.9 71.6-46.2 114-3.1 39.6 7 80.8 27.5 114.7 19.9 33 50 61.1 85.3 77 39.5 17.8 82.3 23.1 124.9 14.5 77-15.5 141.2-81.5 153.2-159.3 1.7-11.2 3-22.3 3-33.6.1-15.7-13.8-30.7-30-30-16.3.7-29.9 13.2-30 30zM194.8 263c0 5.6-.4 11.1-1.1 16.6.4-2.7.7-5.3 1.1-8-1.5 10.3-4.2 20.2-8.2 29.8l3-7.2c-2.9 6.9-6.4 13.5-10.6 19.7-1.1 1.6-2.2 3.2-3.4 4.8-3.4 4.8 4.5-5.4.7-.9-2.5 3-5.1 5.9-7.9 8.7-2.6 2.6-5.4 5.1-8.2 7.5-.3.2-1.7 1.7-2 1.7 0 0 6.3-4.7 3-2.3-1.6 1.1-3.2 2.3-4.8 3.4-6.4 4.3-13.2 7.9-20.3 10.9l7.2-3c-9.6 4-19.5 6.7-29.8 8.2 2.7-.4 5.3-.7 8-1.1-11.1 1.5-22.1 1.4-33.2 0 2.7.4 5.3.7 8 1.1-4.8-.7-9.5-1.6-14.2-2.8 7.3 9.6 14.7 19.3 22 28.9v-96.6c0-5.6-.3-11.4.4-17-.4 2.7-.7 5.3-1.1 8 .5-3.1 1.3-6 2.4-9l-3 7.2c.9-2.2 2.1-4.3 3.3-6.4 2.8-4.8-1.8 2.7-2 2.4-.1-.1 2.5-2.7 2.6-2.9.8-.8 1.6-1.4 2.4-2.2 2.4-2.4-6.4 4.3-2.5 2 2.3-1.3 4.5-2.6 6.9-3.6l-7.2 3c2.9-1.1 5.9-1.9 9-2.4-2.7.4-5.3.7-8 1.1 12.9-1.6 26.6-.4 39.6-.4h74c-9.6-7.3-19.3-14.7-28.9-22 1.2 4.7 2.1 9.4 2.8 14.2-.4-2.7-.7-5.3-1.1-8 .7 5.5 1 11.1 1.1 16.6.1 15.7 13.7 30.7 30 30 16.2-.7 30.1-13.2 30-30-.1-13-1.8-26.1-5.1-38.7-3.3-12.7-15.9-22-28.9-22H115.5c-16.2 0-31.5 4.4-44.4 14.4C53.9 230 44.3 249.8 44 271.5c-.2 17.4 0 34.7 0 52.1v55.5c0 13 9.3 25.7 22 28.9 37.6 9.7 77.6 4.9 111.6-13.8 29.4-16.1 52.3-42.5 65.3-73.2 7.8-18.4 11.8-37.9 11.9-58 .1-15.7-13.9-30.7-30-30-16.4.7-29.9 13.2-30 30zm0 498c0 5.6-.4 11.1-1.1 16.6.4-2.7.7-5.3 1.1-8-.7 4.8-1.6 9.5-2.8 14.2 9.6-7.3 19.3-14.7 28.9-22h-96.6c-5.6 0-11.4.3-17-.4 2.7.4 5.3.7 8 1.1-3.1-.5-6-1.3-9-2.4l7.2 3c-2.2-.9-4.3-2.1-6.4-3.3-4.8-2.8 2.7 1.8 2.4 2-.1.1-2.7-2.5-2.9-2.6-.8-.8-1.4-1.6-2.2-2.4-2.4-2.4 4.3 6.4 2 2.5-1.3-2.3-2.6-4.5-3.6-6.9l3 7.2c-1.1-2.9-1.9-5.9-2.4-9 .4 2.7.7 5.3 1.1 8-1.6-12.9-.4-26.6-.4-39.5v-74c-7.3 9.6-14.7 19.3-22 28.9 4.7-1.2 9.4-2.1 14.2-2.8-2.7.4-5.3.7-8 1.1 11.1-1.4 22.2-1.5 33.2 0-2.7-.4-5.3-.7-8-1.1 10.3 1.5 20.2 4.2 29.8 8.2l-7.2-3c6.9 2.9 13.5 6.4 19.7 10.6 1.6 1.1 3.2 2.2 4.8 3.4 4.8 3.4-5.4-4.5-.9-.7 3 2.5 5.9 5.1 8.7 7.9 2.6 2.6 5.1 5.4 7.5 8.2.2.3 1.7 1.7 1.7 2 0 0-4.7-6.3-2.3-3 1.1 1.6 2.3 3.2 3.4 4.8 4.3 6.4 7.9 13.2 10.9 20.3l-3-7.2c4 9.6 6.7 19.5 8.2 29.8-.4-2.7-.7-5.3-1.1-8 .7 5.4 1 10.9 1.1 16.5.1 15.7 13.7 30.7 30 30 16.2-.7 30.1-13.2 30-30-.2-36.1-13.2-69.6-36-97.4-20.3-24.7-50.7-42.8-82-49.2-23.5-4.8-47.4-4.4-70.7 1.6-12.8 3.3-22.1 16-22.1 29v105.3c0 16.2 4.4 31.5 14.4 44.4 13.3 17.2 33.1 26.8 54.8 27.1 17.4.2 34.7 0 52.1 0h55.5c13 0 25.7-9.3 28.9-22 3.2-12.6 5-25.7 5.1-38.7.1-15.7-13.9-30.7-30-30-16.4.6-29.9 13.1-30 29.9zM920 271v108.1c7.3-9.6 14.7-19.3 22-28.9-4.7 1.2-9.4 2.1-14.2 2.8 2.7-.4 5.3-.7 8-1.1-11.1 1.4-22.2 1.5-33.2 0 2.7.4 5.3.7 8 1.1-10.3-1.5-20.2-4.2-29.8-8.2l7.2 3c-6.9-2.9-13.5-6.4-19.7-10.6-1.6-1.1-3.2-2.2-4.8-3.4-4.8-3.4 5.4 4.5.9.7-3-2.5-5.9-5.1-8.7-7.9-2.6-2.6-5.1-5.4-7.5-8.2-.2-.3-1.7-1.7-1.7-2 0 0 4.7 6.3 2.3 3-1.1-1.6-2.3-3.2-3.4-4.8-4.3-6.4-7.9-13.2-10.9-20.3l3 7.2c-4-9.6-6.7-19.5-8.2-29.8.4 2.7.7 5.3 1.1 8-1.5-11.1-1.4-22.1 0-33.2-.4 2.7-.7 5.3-1.1 8 .7-4.8 1.6-9.5 2.8-14.2-9.6 7.3-19.3 14.7-28.9 22h96.6c5.6 0 11.4-.3 17 .4-2.7-.4-5.3-.7-8-1.1 3.1.5 6 1.3 9 2.4l-7.2-3c2.2.9 4.3 2.1 6.4 3.3 4.8 2.8-2.7-1.8-2.4-2 .1-.1 2.7 2.5 2.9 2.6.8.8 1.4 1.6 2.2 2.4 2.4 2.4-4.3-6.4-2-2.5 1.3 2.3 2.6 4.5 3.6 6.9l-3-7.2c1.1 2.9 1.9 5.9 2.4 9-.4-2.7-.7-5.3-1.1-8 .2 1.8.3 3.6.4 5.5.3 15.7 13.6 30.7 30 30 16-.7 30.3-13.2 30-30-.5-30.4-19.9-56.4-48.8-65.8-10-3.3-20.5-3-30.8-3h-97.2c-13 0-25.7 9.3-28.9 22-10.3 40.2-4.3 84.5 18.5 119.5 20.6 31.5 52.4 55.4 89.1 64.6 24.9 6.3 51.1 6 76-.4 12.7-3.3 22-15.9 22-28.9V270.9c0-15.7-13.8-30.7-30-30-16.2.8-29.9 13.3-29.9 30.1zm0 374v96.6c0 5.6.3 11.4-.4 17 .4-2.7.7-5.3 1.1-8-.5 3.1-1.3 6-2.4 9l3-7.2c-.9 2.2-2.1 4.3-3.3 6.4-2.8 4.8 1.8-2.7 2-2.4.1.1-2.5 2.7-2.6 2.9-.8.8-1.6 1.4-2.4 2.2-2.4 2.4 6.4-4.3 2.5-2-2.3 1.3-4.5 2.6-6.9 3.6l7.2-3c-2.9 1.1-5.9 1.9-9 2.4 2.7-.4 5.3-.7 8-1.1-12.9 1.6-26.6.4-39.6.4h-74c9.6 7.3 19.3 14.7 28.9 22-1.2-4.7-2.1-9.4-2.8-14.2.4 2.7.7 5.3 1.1 8-1.4-11.1-1.5-22.2 0-33.2-.4 2.7-.7 5.3-1.1 8 1.5-10.3 4.2-20.2 8.2-29.8l-3 7.2c2.9-6.9 6.4-13.5 10.6-19.7 1.1-1.6 2.2-3.2 3.4-4.8 3.4-4.8-4.5 5.4-.7.9 2.5-3 5.1-5.9 7.9-8.7 2.6-2.6 5.4-5.1 8.2-7.5.3-.2 1.7-1.7 2-1.7 0 0-6.3 4.7-3 2.3 1.6-1.1 3.2-2.3 4.8-3.4 6.4-4.3 13.2-7.9 20.3-10.9l-7.2 3c9.6-4 19.5-6.7 29.8-8.2-2.7.4-5.3.7-8 1.1 11.1-1.5 22.1-1.4 33.2 0-2.7-.4-5.3-.7-8-1.1 4.8.7 9.5 1.6 14.2 2.8 15.2 3.9 33.3-5 36.9-21 3.6-15.6-4.7-32.7-21-36.9-40.1-10.3-84.5-4.3-119.5 18.5-31.5 20.6-55.4 52.4-64.6 89.1-6.3 24.9-6 51.1.4 76 3.3 12.7 15.9 22 28.9 22h105.3c16.2 0 31.5-4.4 44.4-14.4 17.2-13.3 26.8-33.1 27.1-54.8.2-17.4 0-34.7 0-52.1v-55.5c0-15.7-13.8-30.7-30-30-16.2.9-29.9 13.4-29.9 30.2z" fill="#000000" class="color000000 svgShape"></path></svg>