<svg xmlns="http://www.w3.org/2000/svg" viewBox="0 0 24 24" id="Check"><path fill="#423430" d="M12 0C7.589 0 4 3.589 4 8c0 1.324.331 2.637.96 3.802l6.602 11.94a.5.5 0 0 0 .875 0l6.605-11.944A8.014 8.014 0 0 0 20 8c0-4.411-3.589-8-8-8z" class="color303c42 svgShape"></path><path fill="#e5471e" d="M18.165 11.318L12 22.467 5.838 11.322A7.009 7.009 0 0 1 5 8c0-3.86 3.14-7 7-7s7 3.14 7 7c0 1.159-.29 2.308-.835 3.318z" class="color1e88e5 svgShape"></path><circle cx="12" cy="8" r="5.5" fill="#423430" class="color303c42 svgShape"></circle><circle cx="12" cy="8" r="4.5" fill="#ff7c5a" class="color7cb342 svgShape"></circle><path d="M8.5 9.5C8.5 7.019 10.519 5 13 5c1.232 0 2.35.5 3.163 1.305A4.502 4.502 0 0 0 12 3.5 4.505 4.505 0 0 0 7.5 8c0 1.249.513 2.38 1.337 3.195A4.468 4.468 0 0 1 8.5 9.5z" opacity=".1" fill="#000000" class="color000000 svgShape"></path><path fill="#423430" d="M14.146 6.146L11 9.293 9.854 8.146a.5.5 0 1 0-.708.708l1.5 1.5a.498.498 0 0 0 .708 0l3.5-3.5a.5.5 0 1 0-.708-.708z" class="color303c42 svgShape"></path><linearGradient id="a" x1="3.366" x2="17.868" y1="7.587" y2="14.349" gradientUnits="userSpaceOnUse"><stop offset="0" stop-color="#ffffff" stop-opacity=".2" class="stopColorffffff svgShape"></stop><stop offset="1" stop-color="#ffffff" stop-opacity="0" class="stopColorffffff svgShape"></stop></linearGradient><path fill="url(#a)" d="M12 0C7.589 0 4 3.589 4 8c0 1.324.331 2.637.96 3.802l6.602 11.94a.5.5 0 0 0 .875 0l6.605-11.944A8.014 8.014 0 0 0 20 8c0-4.411-3.589-8-8-8z"></path></svg>