<svg xmlns="http://www.w3.org/2000/svg" enable-background="new 0 0 64 64" viewBox="0 0 64 64" id="not-allow"><rect width="56.71" height="44.64" x="1.29" y="4.78" fill="#ffc064"></rect><path d="M39.97,49.57c0-0.71-0.57-1.28-1.28-1.28H2.56V6h54.76v24.5c0,0.71,0.57,1.28,1.28,1.28c0.71,0,1.28-0.57,1.28-1.28V4.72
			c0-0.71-0.57-1.28-1.28-1.28H1.28C0.57,3.44,0,4.01,0,4.72v44.85c0,0.71,0.57,1.28,1.28,1.28h37.41
			C39.4,50.85,39.97,50.27,39.97,49.57z"></path><path d="M53.98,35.34c0.71,0,1.28-0.57,1.28-1.28V9.74c0-0.71-0.57-1.28-1.28-1.28H5.89c-0.71,0-1.28,0.57-1.28,1.28v34.81
			c0,0.71,0.57,1.28,1.28,1.28h32.81c0.71,0,1.28-0.57,1.28-1.28c0-0.71-0.57-1.28-1.28-1.28H7.17V11.02H52.7v23.05
			C52.7,34.77,53.27,35.34,53.98,35.34z"></path><path d="M51.78,46.53l11.85-11.85c0.5-0.5,0.5-1.31,0-1.81c-0.5-0.5-1.31-0.5-1.81,0L49.97,44.72L38.13,32.88
			c-0.5-0.5-1.31-0.5-1.81,0c-0.5,0.5-0.5,1.31,0,1.81l11.85,11.85L36.32,58.38c-0.5,0.5-0.5,1.31,0,1.81
			c0.25,0.25,0.58,0.37,0.9,0.37c0.33,0,0.65-0.12,0.9-0.37l11.85-11.85l11.85,11.85c0.25,0.25,0.58,0.37,0.9,0.37
			c0.33,0,0.65-0.12,0.9-0.37c0.5-0.5,0.5-1.31,0-1.81L51.78,46.53z"></path></svg>