<svg xmlns="http://www.w3.org/2000/svg" viewBox="0 0 32 32" id="phone-problem"><path d="M13 28H7c-.6 0-1-.4-1-1V5c0-.6.4-1 1-1h14c.6 0 1 .4 1 1v8c0 .6.4 1 1 1s1-.4 1-1V5c0-1.7-1.3-3-3-3H7C5.3 2 4 3.3 4 5v22c0 1.7 1.3 3 3 3h6c.6 0 1-.4 1-1s-.4-1-1-1z"></path><path d="M13 6c-.6 0-1 .4-1 1s.4 1 1 1h2c.6 0 1-.4 1-1s-.4-1-1-1h-2zm10.7 14.3c-.4-.4-1-.4-1.4 0L21 21.6l-1.3-1.3c-.4-.4-1-.4-1.4 0s-.4 1 0 1.4l1.3 1.3-1.3 1.3c-.4.4-.4 1 0 1.4.2.2.5.3.7.3s.5-.1.7-.3l1.3-1.3 1.3 1.3c.2.2.5.3.7.3s.5-.1.7-.3c.4-.4.4-1 0-1.4L22.4 23l1.3-1.3c.4-.4.4-1 0-1.4z"></path><path d="M21 16c-3.9 0-7 3.1-7 7s3.1 7 7 7 7-3.1 7-7-3.1-7-7-7zm0 12c-2.8 0-5-2.2-5-5s2.2-5 5-5 5 2.2 5 5-2.2 5-5 5z"></path></svg>