<svg xmlns="http://www.w3.org/2000/svg" viewBox="0 0 32 32" id="setting"><g data-name="Layer 2" fill="#000000" class="color000000 svgShape"><path d="M21.87,28.82h-11a3.24,3.24,0,0,1-2.83-1.54l-5.78-10a2.6,2.6,0,0,1,0-2.63l5.78-10a3.24,3.24,0,0,1,2.83-1.54h11A3.24,3.24,0,0,1,24.7,4.72l5.78,10a2.6,2.6,0,0,1,0,2.63l-5.78,10A3.24,3.24,0,0,1,21.87,28.82Zm-11-24.14a1.77,1.77,0,0,0-1.54.79l-5.78,10a1.1,1.1,0,0,0,0,1.13l5.78,10a1.77,1.77,0,0,0,1.54.79h11a1.77,1.77,0,0,0,1.54-.79l5.78-10a1.1,1.1,0,0,0,0-1.13l-5.78-10a1.77,1.77,0,0,0-1.54-.79Z" fill="#000000" class="color000000 svgShape"></path><path d="M16.37,21.75A5.75,5.75,0,1,1,22.12,16,5.76,5.76,0,0,1,16.37,21.75Zm0-10A4.25,4.25,0,1,0,20.62,16,4.25,4.25,0,0,0,16.37,11.75Z" fill="#000000" class="color000000 svgShape"></path></g></svg>