<svg xmlns="http://www.w3.org/2000/svg" viewBox="0 0 24 24" id="star"><g data-name="Layer 2"><path fill="#231f20" d="M7.045 22.001a3.057 3.057 0 0 1-1.82-.598 2.824 2.824 0 0 1-1.165-2.167l-.145-3.75a.795.795 0 0 0-.152-.43l-2.235-3.114a2.755 2.755 0 0 1-.396-2.465 2.901 2.901 0 0 1 1.856-1.863L6.75 6.326a.996.996 0 0 0 .442-.298l2.47-2.953a3.08 3.08 0 0 1 4.676 0l2.47 2.953a.997.997 0 0 0 .444.299l3.76 1.287a2.901 2.901 0 0 1 1.856 1.863 2.755 2.755 0 0 1-.396 2.465l-1.453 2.025a1 1 0 1 1-1.625-1.166l1.453-2.025a.762.762 0 0 0 .116-.69.918.918 0 0 0-.598-.58L16.603 8.22a3 3 0 0 1-1.329-.908l-2.47-2.953a1.117 1.117 0 0 0-1.608 0L8.726 7.31a3 3 0 0 1-1.328.907L3.635 9.507a.918.918 0 0 0-.598.578.762.762 0 0 0 .116.691l2.235 3.114a2.783 2.783 0 0 1 .525 1.52l.145 3.749a.834.834 0 0 0 .354.634 1.087 1.087 0 0 0 .93.168l2.76-.737a1 1 0 0 1 .517 1.932l-2.76.737a3.175 3.175 0 0 1-.814.108Z"></path><path fill="#5a4ef6" d="M16.955 22.001a3.175 3.175 0 0 1-.814-.107l-3.113-.832a1 1 0 1 1 .516-1.933l3.113.832a1.085 1.085 0 0 0 .93-.167.835.835 0 0 0 .355-.636l.11-2.852a.98.98 0 0 1 1.039-.96 1 1 0 0 1 .96 1.038l-.111 2.852a2.824 2.824 0 0 1-1.165 2.167 3.057 3.057 0 0 1-1.82.598Z"></path></g></svg>